<?xml version="1.0" standalone="no"?><!DOCTYPE svg PUBLIC "-//W3C//DTD SVG 1.1//EN" "http://www.w3.org/Graphics/SVG/1.1/DTD/svg11.dtd" ><svg xmlns="http://www.w3.org/2000/svg"><defs><font id="icons" horiz-adv-x="1024"><font-face units-per-em="1024" ascent="960" descent="-64" /><missing-glyph horiz-adv-x="1024" /><glyph unicode="&#x20;" horiz-adv-x="512" d="" /><glyph unicode="&#xe900;" glyph-name="zcash" d="M658.618 527.127c13.964 13.964 32.582 30.255 34.909 46.545 6.982 32.582 2.327 67.491 2.327 102.4h-130.327v88.436h-104.727v-88.436h-118.691v-104.727h202.473c-18.618-20.945-34.909-37.236-51.2-55.855-41.891-48.873-83.782-95.418-123.345-144.291-11.636-13.964-30.255-30.255-34.909-46.545-6.982-32.582-2.327-67.491-2.327-102.4h130.327v-88.436h109.382c-2.327 30.255-2.327 58.182-4.655 88.436h130.327v104.727h-209.455c18.618 18.618 34.909 37.236 51.2 55.855 34.909 48.873 76.8 95.418 118.691 144.291zM984.436 648.145c-25.6 60.509-62.836 116.364-109.382 162.909s-102.4 83.782-162.909 109.382c-62.836 25.6-130.327 39.564-200.145 39.564s-137.309-13.964-200.145-39.564c-60.509-25.6-116.364-62.836-162.909-109.382s-83.782-102.4-109.382-162.909c-25.6-62.836-39.564-130.327-39.564-200.145s13.964-137.309 39.564-200.145c25.6-60.509 62.836-116.364 109.382-162.909s102.4-83.782 162.909-109.382c65.164-25.6 130.327-39.564 200.145-39.564s137.309 13.964 200.145 39.564c60.509 25.6 116.364 62.836 162.909 109.382s83.782 102.4 109.382 162.909c25.6 65.164 39.564 130.327 39.564 200.145s-13.964 137.309-39.564 200.145zM793.6 166.4c-74.473-74.473-174.545-116.364-281.6-116.364s-207.127 41.891-281.6 116.364c-74.473 74.473-116.364 174.545-116.364 281.6s41.891 207.127 116.364 281.6c74.473 74.473 174.545 116.364 281.6 116.364s207.127-41.891 281.6-116.364c74.473-74.473 116.364-174.545 116.364-281.6s-41.891-207.127-116.364-281.6z" /><glyph unicode="&#xe901;" glyph-name="zoom" d="M1001.117 70.436l-211.665 211.665c51.486 74.369 77.229 154.458 77.229 245.989 0 60.067-11.441 114.413-34.324 168.76s-54.346 100.112-91.531 137.296c-40.045 40.045-85.81 68.648-137.296 91.531-54.346 22.883-111.553 34.324-168.76 34.324-60.067 0-114.413-11.441-168.76-34.324s-100.112-54.346-140.156-91.531c-37.184-40.045-68.648-85.81-91.531-140.156-22.883-51.486-34.324-108.693-34.324-168.76s11.441-114.413 34.324-168.76c22.883-54.346 54.346-100.112 91.531-137.296 40.045-40.045 85.81-68.648 137.296-91.531 54.346-22.883 108.693-34.324 168.76-34.324 91.531 0 171.62 25.743 245.989 77.229l211.665-211.665c14.302-14.302 34.324-22.883 54.346-22.883 22.883 0 40.045 8.581 54.346 22.883s22.883 34.324 22.883 54.346c2.86 22.883-2.86 40.045-20.022 57.207zM629.274 330.726c-54.346-54.346-120.134-80.089-194.503-80.089-77.229 0-140.156 25.743-194.503 80.089s-80.089 120.134-80.089 194.503c0 77.229 25.743 140.156 80.089 194.503s120.134 80.089 194.503 80.089c77.229 0 140.156-25.743 194.503-80.089s80.089-120.134 80.089-194.503c0-74.369-25.743-140.156-80.089-194.503z" /><glyph unicode="&#xe902;" glyph-name="transations" horiz-adv-x="1050" d="M871.346 295.346c-75.652 0-140.496-52.686-166.164-113.478h-439.050c-14.86 0-27.018 12.158-27.018 27.018v137.794l43.23-40.528c10.807-10.807 25.668-16.211 40.528-16.211s28.369 5.404 39.177 16.211c10.807 10.807 16.211 24.317 16.211 39.177s-5.404 28.369-16.211 39.177c0 0-131.040 132.39-131.040 132.39-10.807 10.807-22.966 17.562-36.475 17.562-14.86 1.351-29.72-4.053-41.879-14.86 0 0-1.351 0-136.443-135.092-10.807-10.807-16.211-24.317-16.211-39.177s5.404-28.369 14.86-39.177 22.966-16.211 36.475-16.211c14.86 0 22.966 5.404 33.773 16.211l32.422 40.528v-263.43c0-14.86 16.211-29.72 31.071-29.72h553.879c24.317-68.897 90.512-117.53 168.865-117.53 98.617 0 178.322 82.406 178.322 181.024s-79.704 178.322-178.322 178.322zM869.995 45.425c-39.177 0-70.248 31.071-70.248 70.248s31.071 70.248 70.248 70.248c39.177 0 70.248-31.071 70.248-70.248 0-37.826-31.071-70.248-70.248-70.248zM178.322 599.303c75.652 0 140.496 49.984 166.164 110.776h439.050c14.86 0 24.317-6.755 24.317-21.615v-137.794l-41.879 41.879c-10.807 10.807-24.317 16.211-39.177 16.211s-28.369-5.404-39.177-16.211c-10.807-10.807-14.86-24.317-14.86-39.177s5.404-28.369 16.211-39.177l131.040-132.39c10.807-10.807 22.966-17.562 36.475-17.562 14.86-1.351 29.72 4.053 41.879 14.86l133.741 135.092c10.807 10.807 16.211 24.317 16.211 39.177s-5.404 28.369-14.86 39.177c-10.807 10.807-22.966 16.211-36.475 16.211-14.86 0-24.317-5.404-33.773-16.211l-33.773-40.528v262.079c0 14.86-13.509 25.668-28.369 25.668h-553.879c-24.317 68.897-90.512 120.232-168.865 120.232-97.266 0-176.971-82.406-176.971-181.024s78.354-179.673 176.971-179.673zM178.322 851.926c39.177 0 70.248-31.071 70.248-70.248s-31.071-70.248-70.248-70.248c-39.177 0-70.248 31.071-70.248 70.248 1.351 39.177 32.422 70.248 70.248 70.248z" /><glyph unicode="&#xe903;" glyph-name="x" d="M684.8 448l300.8 300.8c44.8 44.8 44.8 128 0 172.8s-128 44.8-172.8 0l-300.8-300.8-300.8 300.8c-44.8 44.8-128 44.8-172.8 0s-44.8-128 0-172.8l300.8-300.8-300.8-300.8c-44.8-44.8-44.8-128 0-172.8 19.2-25.6 51.2-38.4 83.2-38.4s64 12.8 89.6 38.4l300.8 300.8 300.8-300.8c25.6-25.6 57.6-38.4 89.6-38.4s64 12.8 89.6 38.4c44.8 44.8 44.8 128 0 172.8l-307.2 300.8z" /><glyph unicode="&#xe904;" glyph-name="plus" horiz-adv-x="998" d="M601.6 537.6v422.4h-204.8v-422.4h-396.8v-192h396.8v-422.4h204.8v422.4h396.8v192z" /><glyph unicode="&#xe905;" glyph-name="qr" d="M41.891 918.109h162.909v41.891h-204.8v-83.782h41.891zM83.782 671.418h204.8v288.582h-83.782v-41.891h41.891v-204.8h-204.8v162.909h-41.891v-204.8h41.891zM41.891 550.4h-41.891v-41.891h83.782v41.891zM83.782 303.709v41.891h-83.782v-41.891h41.891zM83.782 303.709h41.891v-41.891h-41.891zM121.018 876.218h-37.236v-121.018h121.018v121.018h-41.891zM162.909 19.782h41.891v121.018h-121.018v-121.018h37.236zM121.018-22.109h-79.127v162.909h-41.891v-204.8h204.8v41.891h-41.891zM162.909 303.709h41.891v-41.891h-41.891zM246.691 508.509h41.891v41.891h-125.673v41.891h-41.891v41.891h-37.236v-83.782h37.236v-41.891h83.782v-41.891h-41.891v-37.236h-41.891v79.127h-37.236v-41.891h-83.782v-79.127h121.018v-41.891h83.782v-41.891h41.891v41.891h79.127v41.891h-121.018v41.891h83.782v37.236h-41.891zM204.8 224.582h-204.8v-83.782h41.891v41.891h204.8v-204.8h-41.891v-41.891h83.782v288.582h-41.891zM246.691 303.709h41.891v-41.891h-41.891zM288.582 508.509h41.891v-41.891h-41.891zM367.709 755.2h41.891v-83.782h41.891v83.782h79.127v-41.891h41.891v-41.891h41.891v83.782h41.891v-83.782h41.891v125.673h-41.891v41.891h-41.891v-41.891h-41.891v79.127h-41.891v-79.127h-37.236v41.891h-41.891v-41.891h-83.782v121.018h-41.891v-246.691h41.891v41.891zM325.818 466.618h41.891v-41.891h-41.891zM325.818 57.018h41.891v-41.891h-41.891zM367.709 429.382h41.891v-41.891h-41.891zM367.709 182.691v41.891h41.891v37.236h41.891v41.891h-41.891v41.891h-41.891v-41.891h-41.891v-162.909h41.891v-83.782h41.891v83.782h41.891v41.891h-41.891zM367.709-64h83.782v41.891h-41.891v41.891h-41.891v-41.891zM409.6 634.182v37.236h-41.891v-37.236h-162.909v-41.891h121.018v-83.782h41.891v83.782h83.782v41.891zM451.491 671.418h41.891v-41.891h-41.891zM493.382 508.509v83.782h-41.891v-83.782h-41.891v-41.891h41.891v-37.236h41.891v37.236zM451.491 224.582h41.891v-41.891h-41.891zM451.491 57.018v-37.236h41.891v37.236h37.236v41.891h-37.236v41.891h-41.891v-41.891zM493.382 713.309h41.891v-41.891h-41.891zM572.509 918.109v41.891h-79.127v-41.891h-83.782v-41.891h121.018v41.891zM530.618 671.418h41.891v-41.891h-41.891zM530.618 592.291h41.891v-41.891h-41.891zM572.509 345.6h41.891v41.891h-83.782v41.891h-37.236v-125.673h37.236v41.891zM614.4 592.291v-41.891h41.891v41.891h79.127v41.891h-162.909v-41.891zM572.509 550.4h41.891v-41.891h-41.891zM614.4 960h41.891v-41.891h-41.891zM656.291 918.109h41.891v-41.891h-41.891zM656.291 550.4h41.891v-41.891h-41.891zM735.418 224.582h41.891v-41.891h-41.891zM777.309-22.109h41.891v-41.891h-41.891zM861.091 876.218h-41.891v-121.018h121.018v121.018h-37.236zM902.982 550.4h41.891v-41.891h-41.891zM902.982 224.582v37.236h-41.891v41.891h41.891v41.891h41.891v83.782h-41.891v83.782h-41.891v-167.564h-41.891v125.673h-41.891v41.891h-83.782v-41.891h41.891v-83.782h41.891v-83.782h-41.891v41.891h-41.891v125.673h-125.673v41.891h-41.891v-83.782h125.673v-83.782h-41.891v-41.891h41.891v-41.891h-83.782v41.891h-41.891v-41.891h-41.891v-41.891h41.891v-83.782h83.782v41.891h41.891v-41.891h-41.891v-41.891h-41.891v-125.673h41.891v41.891h83.782v-83.782h41.891v41.891h41.891v41.891h83.782v-41.891h41.891v41.891h125.673v41.891h-167.564v125.673h83.782v41.891h-41.891zM819.2 57.018h-167.564v41.891h167.564v-41.891zM819.2 140.8h-125.673v121.018h125.673v-121.018zM982.109 634.182h-204.8v-41.891h-41.891v-41.891h83.782v41.891h41.891v-41.891h41.891v41.891h37.236v-41.891h41.891v-41.891h41.891v83.782h-41.891zM940.218 466.618v-37.236h41.891v-167.564h-41.891v-37.236h41.891v-41.891h-41.891v-83.782h41.891v41.891h41.891v325.818h-41.891v41.891h-41.891zM982.109 960h-41.891v-41.891h41.891v-41.891h41.891v83.782zM982.109 838.982v-125.673h-204.8v204.8h162.909v41.891h-204.8v-288.582h288.582v204.8h-41.891zM982.109-22.109h41.891v-41.891h-41.891z" /><glyph unicode="&#xe906;" glyph-name="pencil" d="M170.667 290.133l499.2 494.933-46.933 46.933-494.933-499.2c-12.8-12.8-12.8-34.133 0-46.933s29.867-8.533 42.667 4.267zM217.6 153.6c25.6-25.6 64-25.6 89.6 0l499.2 499.2-89.6 89.6-499.2-499.2c-25.6-25.6-25.6-64 0-89.6zM354.133 106.667c-12.8-12.8-12.8-29.867 0-42.667s34.133-12.8 46.933 0l494.933 494.933-46.933 46.933-494.933-499.2zM985.6 832l-89.6 89.6c-51.2 51.2-132.267 51.2-179.2 0l-46.933-46.933 273.067-273.067 46.933 46.933c46.933 51.2 46.933 132.267-4.267 183.467zM281.6 72.533c-8.533 0-12.8 0-21.333 0-34.133 0-68.267 12.8-89.6 38.4-25.6 25.6-38.4 55.467-38.4 89.6 0 4.267 0 12.8 0 17.067-21.333 4.267-38.4 12.8-55.467 25.6 0 0 0 4.267-4.267 4.267l-72.533-311.467 311.467 76.8s-4.267 4.267-4.267 4.267c-12.8 17.067-21.333 34.133-25.6 55.467z" /><glyph unicode="&#xe907;" glyph-name="picture" horiz-adv-x="1301" d="M1270.376 929.203c-23.098 23.098-46.195 30.797-76.992 30.797h-1085.594c-30.797 0-53.895-7.699-76.992-30.797s-30.797-46.195-30.797-76.992v-816.12c0-30.797 7.699-53.895 30.797-76.992s46.195-30.797 76.992-30.797h1085.594c30.797 0 53.895 7.699 76.992 30.797s30.797 46.195 30.797 76.992v816.12c0 30.797-15.398 53.895-30.797 76.992zM1216.481 36.090c0-7.699 0-7.699-7.699-15.398s-7.699-7.699-15.398-7.699h-1085.594c-7.699 0-7.699 0-15.398 7.699s-7.699 7.699-7.699 15.398v816.12c0 7.699 0 7.699 7.699 15.398s7.699 7.699 15.398 7.699h1085.594c7.699 0 7.699 0 15.398-7.699s7.699-7.699 7.699-15.398v-816.12zM300.271 528.842c38.496 0 69.293 15.398 92.391 38.496s38.496 53.895 38.496 92.391-15.398 69.293-38.496 92.391c-23.098 23.098-53.895 38.496-92.391 38.496s-69.293-15.398-92.391-38.496c-23.098-23.098-38.496-53.895-38.496-92.391s15.398-69.293 38.496-92.391c30.797-23.098 61.594-38.496 92.391-38.496zM500.451 336.361l-107.789 107.789-215.579-215.579v-130.887h947.007v300.271l-277.173 284.872z" /><glyph unicode="&#xe908;" glyph-name="minus" horiz-adv-x="998" d="M396.8 537.6h-396.8v-192h998.4v192z" /><glyph unicode="&#xe909;" glyph-name="notification" horiz-adv-x="1164" d="M1132.606 223.030l-380.121 643.879c-31.030 54.303-100.848 93.091-162.909 93.091-69.818 0-131.879-38.788-162.909-93.091l-387.879-651.636c-31.030-54.303-31.030-131.879 0-186.182s100.848-93.091 162.909-93.091h775.758c108.606 0 193.939 85.333 193.939 186.182-7.758 38.788-23.273 69.818-38.788 100.848zM659.394 160.97c0-46.545-38.788-77.576-85.333-77.576s-85.333 31.030-85.333 77.576 38.788 77.576 85.333 77.576 85.333-31.030 85.333-77.576zM620.606 347.152c0-23.273-23.273-38.788-46.545-38.788s-38.788 15.515-46.545 38.788l-38.788 341.333c0 23.273 15.515 46.545 38.788 46.545h93.091c23.273 0 38.788-23.273 38.788-46.545l-38.788-341.333z" /><glyph unicode="&#xe90a;" glyph-name="litecoin" horiz-adv-x="979" d="M489.739 960c-271.583 0-489.739-229.287-489.739-512s218.157-512 489.739-512 489.739 229.287 489.739 512-218.157 512-489.739 512zM687.861 209.809h-405.148l40.070 162.504-57.878-22.261 20.035 75.687 57.878 22.261 69.009 273.809h151.374l-51.2-209.252 73.461 28.939v-2.226l-17.809-73.461-75.687-28.939-31.165-124.661h251.548l-24.487-102.4z" /><glyph unicode="&#xe90b;" glyph-name="lock" horiz-adv-x="785" d="M729.324 547.453h-18.417v92.086c0 173.122-136.288 316.777-309.41 320.46-3.683 0-14.734 0-18.417 0-169.439-3.683-305.727-147.338-305.727-320.46v-92.086h-22.101c-29.468 0-55.252-33.151-55.252-69.986v-467.799c0-40.518 25.784-69.986 55.252-69.986h674.072c29.468 0 55.252 33.151 55.252 69.986v467.799c0 36.835-22.101 69.986-55.252 69.986zM456.748 241.727v-139.971c0-14.734-14.734-29.468-29.468-29.468h-66.302c-14.734 0-29.468 14.734-29.468 29.468v139.971c-14.734 14.734-25.784 36.835-25.784 58.935 0 44.201 33.151 84.719 77.353 84.719 3.683 0 14.734 0 18.417 0 44.201 0 77.353-40.518 77.353-84.719 3.683-22.101-7.367-44.201-22.101-58.935zM578.302 547.453h-372.029v92.086c0 103.137 84.719 187.856 184.173 187.856s184.173-84.719 184.173-187.856v-92.086z" /><glyph unicode="&#xe90c;" glyph-name="globe" d="M512 960c-280.253 0-512-231.747-512-512s231.747-512 512-512 512 231.747 512 512-231.747 512-512 512zM865.011 652.8h-148.211c-16.168 67.368-40.421 123.958-72.758 183.242 94.316-35.032 175.158-97.011 220.968-183.242zM512 857.6c40.421-61.979 78.147-129.347 97.011-204.8h-194.021c21.558 72.758 56.589 142.821 97.011 204.8zM118.568 345.6c-10.779 29.642-16.168 67.368-16.168 102.4s5.389 72.758 16.168 102.4h175.158c-5.389-35.032-5.389-67.368-5.389-102.4s5.389-67.368 5.389-102.4h-175.158zM158.989 243.2h148.211c16.168-67.368 40.421-123.958 72.758-183.242-94.316 35.032-175.158 97.011-220.968 183.242zM307.2 652.8h-148.211c51.2 86.232 129.347 148.211 220.968 183.242-32.337-59.284-56.589-115.874-72.758-183.242zM512 38.4c-40.421 61.979-75.453 129.347-97.011 204.8h194.021c-18.863-72.758-56.589-142.821-97.011-204.8zM393.432 345.6c-5.389 35.032-10.779 67.368-10.779 102.4s5.389 67.368 10.779 102.4h239.832c5.389-35.032 10.779-67.368 10.779-102.4s-10.779-67.368-16.168-102.4h-234.442zM644.042 59.958c29.642 56.589 56.589 118.568 72.758 183.242h148.211c-45.811-86.232-126.653-148.211-220.968-183.242zM738.358 345.6c5.389 35.032 5.389 67.368 5.389 102.4s-5.389 67.368-5.389 102.4h175.158c10.779-29.642 16.168-67.368 16.168-102.4s-5.389-72.758-16.168-102.4h-175.158z" /><glyph unicode="&#xe90d;" glyph-name="icon" horiz-adv-x="729" d="M243.692 364.308l-108.308-160v-86.154l219.077 320-2.462 86.154zM608 790.154l61.538 86.154 59.077 83.692h-61.538l-86.154-130.462-86.154 130.462h-64l123.077-169.846-83.692-118.154 36.923-36.923 73.846 115.692 91.077-130.462h56.615l-27.077 39.385zM472.615 608c-2.462 2.462-4.923 7.385-9.846 9.846l-54.154 54.154c-12.308 12.308-27.077 19.692-41.846 24.615-4.923 0-9.846 2.462-17.231 2.462h-214.154c-22.154 0-41.846-9.846-59.077-24.615l-54.154-54.154c-14.769-17.231-22.154-32-22.154-51.692 0 0 0-2.462 0-2.462v-497.231s0-2.462 0-2.462c0-19.692 4.923-36.923 22.154-51.692l54.154-54.154c9.846-9.846 22.154-17.231 34.462-22.154 7.385-2.462 14.769-4.923 24.615-4.923h216.615c12.308 0 22.154 2.462 32 7.385s19.692 9.846 27.077 19.692l51.692 51.692c17.231 14.769 22.154 32 22.154 54.154v497.231c0 9.846-2.462 19.692-4.923 29.538 0 4.923-2.462 9.846-7.385 14.769zM388.923 73.846c0-7.385 0-12.308-7.385-17.231l-27.077-27.077c-4.923-4.923-9.846-7.385-17.231-7.385h-189.538c-7.385 0-12.308 2.462-17.231 7.385l-24.615 27.077c-7.385 4.923-7.385 9.846-7.385 14.769v487.385c0 4.923 0 9.846 4.923 14.769l27.077 27.077c2.462 2.462 7.385 4.923 12.308 4.923 2.462 0 4.923 0 4.923 0h192c2.462 0 4.923 0 7.385 0 4.923 0 7.385-2.462 9.846-4.923l27.077-27.077s2.462-2.462 2.462-2.462c2.462-4.923 4.923-7.385 4.923-12.308v-484.923z" /><glyph unicode="&#xe90e;" glyph-name="info" d="M952.558 705.985c-47.628 79.38-107.163 138.915-186.543 186.543s-162.729 67.473-257.984 67.473c-91.287 0-178.605-23.814-257.984-67.473-79.38-47.628-138.915-107.163-186.543-186.543-39.69-79.38-63.504-162.729-63.504-257.984 0-91.287 23.814-178.605 67.473-257.984 47.628-79.38 107.163-138.915 186.543-186.543s162.729-67.473 257.984-67.473c91.287 0 178.605 23.814 257.984 67.473 79.38 47.628 138.915 107.163 186.543 186.543s67.473 162.729 67.473 257.984c0 95.256-23.814 178.605-71.442 257.984zM424.682 832.992c0 7.938 3.969 11.907 3.969 15.876 3.969 3.969 7.938 7.938 15.876 7.938h127.008c7.938 0 11.907 0 15.876-7.938 7.938-3.969 7.938-11.907 7.938-15.876v-107.163c0-7.938-3.969-11.907-7.938-15.876s-7.938-7.938-15.876-7.938h-127.008c-7.938 0-11.907 3.969-15.876 7.938s-3.969 7.938-3.969 15.876v107.163zM658.853 162.233c0-3.969 0-7.938-3.969-11.907s-7.938-3.969-11.907-3.969h-261.953c-3.969 0-7.938 0-11.907 3.969s-3.969 7.938-3.969 11.907v91.287c0 3.969 0 7.938 3.969 11.907s7.938 3.969 11.907 3.969h55.566v182.574h-55.566c-3.969 0-7.938 0-11.907 3.969s-3.969 7.938-3.969 11.907v99.225c0 3.969 0 7.938 3.969 11.907s7.938 3.969 11.907 3.969h182.574c3.969 0 7.938 0 11.907-3.969s3.969-7.938 3.969-11.907v-293.705h55.566c3.969 0 7.938 0 11.907-3.969s3.969-7.938 3.969-11.907v-95.256z" /><glyph unicode="&#xe90f;" glyph-name="filter" horiz-adv-x="1027" d="M1024 932.602c-10.274 17.124-23.973 27.398-44.522 27.398h-931.532c-20.548 0-34.247-10.274-44.522-27.398-6.849-20.548-3.425-37.672 10.274-51.371l359.599-359.599v-352.749c0-13.699 3.425-23.973 13.699-34.247l184.936-184.936c10.274-10.274 20.548-13.699 34.247-13.699 6.849 0 10.274 0 17.124 3.425 20.548 6.849 27.398 23.973 27.398 44.522v537.686l363.023 359.599c13.699 13.699 17.124 30.823 10.274 51.371z" /><glyph unicode="&#xe910;" glyph-name="ethereum-classic" d="M512 960c-282.819 0-512-229.181-512-512s229.181-512 512-512 512 229.181 512 512-229.181 512-512 512zM514.438 786.895l187.733-297.448-187.733 82.895-192.61-80.457 192.61 295.010zM514.438 535.771l195.048-87.771-195.048-109.714-202.362 112.152 202.362 85.333zM516.876 131.048l-195.048 273.067 192.61-112.152 197.486 112.152-195.048-273.067z" /><glyph unicode="&#xe911;" glyph-name="eye" horiz-adv-x="1676" d="M825.355 641.049c-95.126-5.596-170.667-83.934-176.262-181.858-8.393-117.508 86.732-215.432 201.443-207.038 95.126 5.596 170.667 83.934 176.262 181.858 8.393 117.508-86.732 215.432-201.443 207.038zM1661.901 487.169c-215.432 293.77-503.607 472.831-825.355 472.831-318.951 0-609.923-179.060-822.557-472.831-16.787-25.18-16.787-55.956 0-81.137 215.432-290.973 503.607-472.831 825.355-472.831 318.951 0 609.923 179.060 825.355 472.831 13.989 25.18 13.989 58.754-2.798 81.137zM1189.071 422.82c-11.191-179.060-153.88-324.546-327.344-338.535-212.634-13.989-388.896 165.071-374.907 383.301 11.191 184.656 151.082 330.142 327.344 341.333 212.634 13.989 388.896-167.869 374.907-386.098z" /><glyph unicode="&#xe912;" glyph-name="dash" d="M512 960c-283.927 0-512-228.073-512-512 0-281.6 228.073-512 512-512s512 228.073 512 512-230.4 512-512 512zM200.145 499.2h246.691l-30.255-93.091h-249.018l32.582 93.091zM844.8 550.4l-60.509-193.164c-4.655-13.964-11.636-25.6-20.945-37.236s-20.945-23.273-32.582-32.582c-11.636-9.309-27.927-18.618-39.564-25.6-13.964-4.655-25.6-6.982-39.564-6.982h-465.455l32.582 100.073h418.909l65.164 202.473h-418.909l32.582 100.073h463.127c11.636 0 25.6-2.327 34.909-6.982 11.636-4.655 20.945-11.636 25.6-23.273 6.982-9.309 9.309-20.945 9.309-32.582 2.327-18.618 2.327-32.582-4.655-44.218z" /><glyph unicode="&#xe913;" glyph-name="ethereum" d="M512 960c-282.819 0-512-229.181-512-512s229.181-512 512-512 512 229.181 512 512-229.181 512-512 512zM516.876 123.733l-192.61 268.19 190.171-109.714 195.048 109.714-192.61-268.19zM707.048 435.81l-192.61-107.276-199.924 109.714 9.752 4.876-2.438 2.438 190.171 326.705 190.171-334.019 4.876-2.438z" /><glyph unicode="&#xe914;" glyph-name="chevron-up" horiz-adv-x="1623" d="M814.873 484.056l-504.789-504.789c-28.845-28.845-57.69-36.056-93.746-36.056s-72.113 14.423-93.746 36.056l-79.324 79.324c-28.845 21.634-43.268 50.479-43.268 86.535s14.423 72.113 36.056 93.746l685.070 685.070c21.634 21.634 57.69 36.056 93.746 36.056s72.113-14.423 93.746-36.056l677.859-685.070c28.845-28.845 36.056-57.69 36.056-93.746s-14.423-72.113-36.056-93.746l-79.324-79.324c-28.845-28.845-57.69-36.056-93.746-36.056s-72.113 14.423-93.746 36.056l-504.789 512z" /><glyph unicode="&#xe915;" glyph-name="cog" d="M1021.305 504.589c-2.695 13.474-18.863 24.253-32.337 24.253-45.811 0-88.926 26.947-105.095 70.063-18.863 43.116-5.389 94.316 29.642 126.653 10.779 10.779 13.474 26.947 2.695 37.726-24.253 29.642-51.2 59.284-80.842 80.842-10.779 8.084-29.642 8.084-37.726-2.695-29.642-35.032-86.232-45.811-126.653-29.642-48.505 21.558-78.147 67.368-75.453 115.874 0 16.168-10.779 26.947-24.253 29.642-37.726 5.389-78.147 5.389-115.874 0-16.168-2.695-26.947-13.474-24.253-29.642 2.695-48.505-26.947-91.621-70.063-110.484-43.116-16.168-97.011-5.389-126.653 29.642-10.779 10.779-26.947 13.474-37.726 2.695-32.337-24.253-59.284-51.2-83.537-80.842-10.779-10.779-8.084-29.642 2.695-37.726 35.032-32.337 48.505-83.537 29.642-126.653s-61.979-70.063-110.484-70.063c-16.168 0-26.947-10.779-29.642-24.253-5.389-37.726-5.389-78.147 0-115.874 0-16.168 16.168-26.947 32.337-26.947 45.811 0 86.232-26.947 105.095-70.063s5.389-94.316-29.642-126.653c-10.779-10.779-13.474-26.947-2.695-37.726 24.253-29.642 51.2-56.589 80.842-80.842 10.779-10.779 29.642-8.084 37.726 2.695 29.642 35.032 86.232 45.811 126.653 29.642 43.116-18.863 72.758-61.979 70.063-110.484 0-16.168 10.779-26.947 24.253-29.642 21.558-8.084 40.421-8.084 61.979-8.084 18.863 0 37.726 0 56.589 2.695 16.168 2.695 26.947 13.474 24.253 29.642-2.695 48.505 26.947 91.621 70.063 110.484 43.116 16.168 97.011 5.389 126.653-29.642 10.779-10.779 26.947-13.474 37.726-2.695 29.642 24.253 59.284 51.2 83.537 80.842 10.779 10.779 8.084 29.642-2.695 37.726-35.032 32.337-48.505 83.537-29.642 126.653 16.168 40.421 59.284 70.063 105.095 70.063h5.389c13.474 0 26.947 10.779 29.642 24.253 5.389 40.421 5.389 80.842 2.695 118.568zM512 275.537c-94.316 0-169.768 75.453-169.768 169.768s75.453 169.768 169.768 169.768 169.768-75.453 169.768-169.768-75.453-169.768-169.768-169.768z" /><glyph unicode="&#xe916;" glyph-name="csv" horiz-adv-x="914" d="M855.404 594.412h-24.846v117.13s0 1.775 0 1.775c0 5.324-1.775 8.873-5.324 12.423l-198.766 227.161c-1.775 1.775-1.775 1.775-3.549 3.549 0 0 0 0-1.775 0s-1.775 1.775-3.549 1.775c0 0 0 0-1.775 0s-3.549 0-5.324 0h-488.042c-21.296 1.775-39.043-15.972-39.043-39.043v-326.544h-24.846c-31.945 0-58.565-24.846-58.565-56.79v-298.149c0-31.945 26.62-56.79 58.565-56.79h24.846v-204.090c0-21.296 17.747-40.818 40.818-40.818h667.286c23.071 0 40.818 17.747 40.818 40.818v204.090h24.846c31.945 0 58.565 24.846 58.565 56.79v298.149c-1.775 31.945-28.395 58.565-60.34 58.565zM122.454 919.182h468.52v-205.865c0-10.648 8.873-19.522 19.522-19.522h179.244v-101.158h-667.286v326.544zM427.702 374.35c-49.692 17.747-83.411 44.367-83.411 88.735 0 51.466 42.593 90.51 113.581 90.51 33.719 0 58.565-7.099 76.312-15.972l-15.972-55.016c-12.423 5.324-33.719 14.198-63.889 14.198s-44.367-14.198-44.367-28.395c0-19.522 17.747-28.395 56.79-42.593 53.241-19.522 78.087-47.917 78.087-88.735 0-49.692-39.043-92.284-122.454-92.284-33.719 0-69.213 8.873-85.185 17.747l14.198 56.79c17.747-8.873 46.142-19.522 76.312-19.522 31.945 0 47.917 12.423 47.917 31.945 1.775 19.522-12.423 30.17-47.917 42.593zM70.988 393.872c0 102.932 72.763 159.723 165.047 159.723 35.494 0 62.114-7.099 74.537-14.198l-14.198-53.241c-12.423 5.324-31.945 12.423-56.79 12.423-55.016 0-95.834-31.945-95.834-99.383 0-60.34 35.494-97.608 97.608-97.608 21.296 0 42.593 3.549 56.79 8.873l10.648-53.241c-12.423-7.099-40.818-12.423-78.087-12.423-104.707 0-159.723 63.889-159.723 149.075zM789.74-12.534h-667.286v193.442h667.286v-193.442zM745.373 248.347h-79.861l-97.608 299.924h74.537l37.269-126.003c10.648-35.494 19.522-69.213 26.62-106.482h1.775c7.099 35.494 17.747 70.988 26.62 106.482l39.043 127.778h72.763l-101.158-301.698z" /><glyph unicode="&#xe917;" glyph-name="chevron-right" horiz-adv-x="646" d="M345.885 445.724l-318.578 318.578c-18.204 18.204-27.307 40.96-27.307 63.716s9.102 45.511 22.756 59.164l50.062 50.062c18.204 13.653 36.409 22.756 59.164 22.756s45.511-9.102 59.164-22.756l427.804-427.804c18.204-18.204 22.756-36.409 22.756-59.164s-9.102-45.511-22.756-59.164l-427.804-432.356c-18.204-18.204-36.409-22.756-59.164-22.756s-45.511 9.102-59.164 22.756l-50.062 50.062c-13.653 13.653-22.756 36.409-22.756 59.164s9.102 45.511 22.756 59.164l323.129 318.578z" /><glyph unicode="&#xe918;" glyph-name="chevron-down" horiz-adv-x="1623" d="M814.873 411.944l504.789 504.789c28.845 28.845 57.69 43.268 93.746 43.268s72.113-14.423 93.746-36.056l79.324-79.324c28.845-28.845 36.056-57.69 36.056-93.746s-14.423-72.113-36.056-93.746l-677.859-677.859c-28.845-28.845-57.69-36.056-93.746-36.056s-72.113 14.423-93.746 36.056l-685.070 677.859c-21.634 21.634-36.056 57.69-36.056 93.746s14.423 72.113 36.056 93.746l79.324 79.324c28.845 21.634 57.69 36.056 93.746 36.056s72.113-14.423 93.746-36.056l512-512z" /><glyph unicode="&#xe919;" glyph-name="chevron-left" horiz-adv-x="646" d="M300.373 445.724l318.578 318.578c18.204 18.204 22.756 36.409 22.756 59.164s-9.102 45.511-22.756 59.164l-50.062 50.062c-13.653 18.204-31.858 27.307-54.613 27.307s-45.511-9.102-59.164-22.756l-432.356-432.356c-13.653-13.653-22.756-36.409-22.756-59.164s9.102-45.511 22.756-59.164l432.356-427.804c18.204-18.204 36.409-22.756 59.164-22.756s45.511 9.102 59.164 22.756l50.062 50.062c18.204 18.204 22.756 36.409 22.756 59.164s-9.102 45.511-22.756 59.164l-323.129 318.578z" /><glyph unicode="&#xe91a;" glyph-name="check" horiz-adv-x="1368" d="M1328.001 688l-704-704c-64-64-160-64-224 0l-352 352c-64 64-64 160 0 224s160 64 224 0l208-208c16-16 40-16 56 0l560 560c64 64 160 64 224 0 32-32 48-72 48-112s-16-80-40-112z" /><glyph unicode="&#xe91b;" glyph-name="check-circle" d="M512 960c-283.307 0-512-228.693-512-512s228.693-512 512-512 512 228.693 512 512-228.693 512-512 512zM785.067 550.4l-300.373-300.373c-27.307-27.307-68.267-27.307-95.573 0l-150.187 150.187c-27.307 27.307-27.307 68.267 0 95.573s68.267 27.307 95.573 0l88.747-88.747c6.827-6.827 17.067-6.827 23.893 0l238.933 238.933c27.307 27.307 68.267 27.307 95.573 0 13.653-13.653 20.48-30.72 20.48-47.787 3.413-17.067-3.413-34.133-17.067-47.787z" /><glyph unicode="&#xe91c;" glyph-name="caret-left" horiz-adv-x="468" d="M0 448l468.114 512v-1024z" /><glyph unicode="&#xe91d;" glyph-name="caret-right" horiz-adv-x="468" d="M468.114 448l-468.114-512v1024z" /><glyph unicode="&#xe91e;" glyph-name="caret-up" horiz-adv-x="2240" d="M1120 960l-1120-1024h2240z" /><glyph unicode="&#xe91f;" glyph-name="caret-down" horiz-adv-x="2240" d="M1120-64l-1120 1024h2240z" /><glyph unicode="&#xe920;" glyph-name="bitcoin-circle" d="M593.826 581.26c-9.352 4.676-30.393 11.689-58.447 16.365l-49.096 9.352-18.703-107.543 49.096-9.352c25.717-4.676 44.42-7.014 58.447-4.676 11.689 2.338 23.379 7.014 30.393 14.027s11.689 16.365 14.027 28.055c2.338 11.689 2.338 21.041-2.338 30.393-4.676 11.689-11.689 18.703-23.379 23.379zM568.11 408.256c-11.689 7.014-30.393 11.689-53.772 16.365l-56.11 9.352-18.703-95.854c-2.338-14.027-2.338-21.041-2.338-23.379s2.338-4.676 4.676-7.014c2.338-2.338 9.352-2.338 18.703-4.676l32.731-7.014c18.703-2.338 35.068-4.676 46.758-2.338 14.027 0 25.717 7.014 35.068 16.365 11.689 9.352 16.365 21.041 21.041 37.406 2.338 14.027 2.338 23.379-2.338 35.068-7.014 9.352-14.027 16.365-25.717 25.717zM512 960c-282.886 0-512-229.114-512-512s229.114-512 512-512c282.886 0 512 229.114 512 512s-229.114 512-512 512zM729.425 525.151c-2.338-14.027-9.352-28.055-16.365-39.744-9.352-11.689-18.703-21.041-32.731-30.393-14.027-7.014-30.393-14.027-51.434-16.365 18.703-9.352 35.068-18.703 44.42-25.717 14.027-11.689 23.379-25.717 30.393-44.42s7.014-35.068 4.676-56.11c-4.676-23.379-16.365-44.42-32.731-60.785-21.041-16.365-44.42-28.055-70.137-32.731-11.689-2.338-21.041-2.338-35.068-2.338l-14.027-79.489-74.813 14.027 14.027 72.475c-2.338 0-2.338 0-4.676 0l-42.082 7.014-14.027-72.475-74.813 14.027 14.027 72.475-116.895 23.379 11.689 60.785 18.703-2.338c11.689-2.338 18.703-2.338 23.379-2.338s7.014 2.338 9.352 7.014c2.338 2.338 4.676 11.689 7.014 23.379l46.758 245.479c2.338 14.027 2.338 21.041 2.338 25.717s-2.338 7.014-7.014 9.352c-2.338 2.338-11.689 4.676-23.379 7.014l-18.703 2.338 11.689 60.785 114.557-21.041 14.027 74.813 74.813-14.027-14.027-72.475 49.096-9.352 14.027 72.475 74.813-14.027-14.027-77.151c11.689-4.676 21.041-9.352 28.055-14.027 21.041-14.027 35.068-28.055 42.082-46.758s11.689-39.744 7.014-58.447z" /><glyph unicode="&#xe921;" glyph-name="bitcoin-square" horiz-adv-x="1721" d="M1091.369 960c198.737-90.947 336.842-286.316 336.842-515.369 0-225.684-138.105-421.053-333.474-512h626.526v1027.369h-629.895zM252.632 444.631c0 229.053 138.105 421.053 336.842 515.369h-589.474v-1024h586.105c-195.368 90.947-333.474 282.947-333.474 508.632zM875.79 512c10.105 10.105 16.842 16.842 20.211 26.947s0 20.211-3.368 30.316c-3.368 10.105-10.105 20.211-20.211 23.579-10.105 6.737-20.211 6.737-30.316 6.737s-30.316-6.737-60.632-16.842l-47.158-20.211 40.421-101.053 47.158 16.842c23.579 16.842 40.421 26.947 53.895 33.684zM946.526 434.526c-10.105 6.737-20.211 10.105-33.684 10.105s-33.684-6.737-57.263-13.474l-57.263-20.211 37.053-90.947c6.737-13.474 10.105-20.211 10.105-20.211 3.368-3.368 3.368-3.368 6.737-3.368s10.105 3.368 20.211 6.737l30.316 13.474c16.842 6.737 33.684 13.474 43.789 23.579 10.105 6.737 16.842 20.211 23.579 33.684 3.368 13.474 3.368 26.947-3.368 43.789-3.368 0-10.105 10.105-20.211 16.842zM1286.737 720.842c-158.316 239.158-481.684 309.895-727.579 158.316s-316.632-468.211-161.684-707.369c154.947-239.158 481.684-309.895 727.579-158.316 245.895 154.947 316.632 471.579 161.684 707.369zM1091.369 367.158c-6.737-23.579-20.211-47.158-40.421-64-6.737-6.737-16.842-13.474-30.316-20.211l30.316-74.105-74.105-26.947-30.316 67.368c-3.368 0-3.368 0-6.737-3.368l-40.421-16.842 26.947-67.368-74.105-26.947-26.947 67.368-111.158-43.789-23.579 57.263 16.842 6.737c10.105 3.368 20.211 6.737 20.211 10.105 3.368 3.368 6.737 6.737 6.737 10.105s-3.368 13.474-6.737 23.579l-97.684 232.421c-3.368 13.474-10.105 20.211-13.474 23.579s-6.737 3.368-10.105 3.368c-3.368 0-13.474 0-23.579-6.737h-10.105l-23.579 57.263 111.158 43.789-26.947 67.368 74.105 26.947 26.947-67.368 47.158 20.211-26.947 67.368 74.105 26.947 30.316-74.105c6.737 3.368 16.842 6.737 26.947 3.368 23.579 0 47.158-6.737 64-16.842s30.316-26.947 40.421-43.789c6.737-13.474 6.737-26.947 6.737-43.789 0-13.474-3.368-30.316-13.474-43.789-6.737-13.474-20.211-26.947-37.053-40.421 23.579 3.368 40.421 3.368 53.895 3.368 20.211-3.368 37.053-10.105 50.526-20.211 16.842-10.105 26.947-26.947 33.684-43.789 10.105-26.947 13.474-47.158 6.737-74.105z" /><glyph unicode="&#xe922;" glyph-name="bitcoin" horiz-adv-x="777" d="M763.586 668.69c-13.241 30.897-39.724 57.379-70.621 79.448-13.241 8.828-26.483 17.655-44.138 22.069l22.069 128-123.586 22.069-22.069-119.172-79.448 13.241 22.069 119.172-123.586 26.483-22.069-119.172-185.379 35.31-22.069-101.517 30.897-4.414c17.655-4.414 30.897-8.828 35.31-13.241 8.828-4.414 13.241-8.828 13.241-17.655 0-4.414 0-22.069-4.414-44.138l-75.034-406.069c-4.414-22.069-8.828-35.31-13.241-39.724s-8.828-8.828-17.655-8.828c-8.828-4.414-22.069 0-39.724 0l-26.483 13.241-17.655-101.517 185.379-35.31-22.069-119.172 123.586-22.069 22.069 119.172 70.621-13.241c4.414 0 4.414 0 8.828 0l-22.069-119.172 123.586-22.069 22.069 128c22.069 0 39.724 0 57.379 4.414 44.138 8.828 83.862 26.483 110.345 57.379 30.897 26.483 48.552 61.793 52.966 97.103 4.414 30.897 4.414 61.793-8.828 92.69-8.828 30.897-26.483 52.966-48.552 75.034-17.655 13.241-39.724 26.483-70.621 44.138 35.31 4.414 61.793 13.241 83.862 26.483s39.724 30.897 52.966 48.552c13.241 22.069 22.069 44.138 26.483 66.207 13.241 26.483 8.828 57.379-4.414 88.276zM551.724 280.276c-4.414-26.483-17.655-44.138-30.897-61.793-17.655-13.241-35.31-22.069-57.379-26.483-22.069 0-48.552 0-79.448 4.414l-52.966 13.241c-17.655 4.414-26.483 8.828-30.897 8.828-4.414 4.414-4.414 4.414-8.828 13.241 0 4.414 0 17.655 4.414 39.724l30.897 154.483 92.69-17.655c39.724-8.828 70.621-17.655 88.276-26.483 17.655-13.241 30.897-26.483 39.724-44.138s8.828-35.31 4.414-57.379zM595.862 580.414c-4.414-17.655-13.241-35.31-22.069-44.138-13.241-13.241-30.897-17.655-48.552-22.069-22.069-4.414-52.966 0-92.69 8.828l-88.276 8.828 30.897 176.552 83.862-13.241c44.138-8.828 79.448-17.655 92.69-26.483 17.655-8.828 30.897-22.069 35.31-35.31 8.828-17.655 8.828-35.31 8.828-52.966z" /><glyph unicode="&#xe923;" glyph-name="bitcoin2" horiz-adv-x="887" d="M881.626 319.315c10.952 38.332 5.476 76.663-5.476 114.995-10.952 27.38-32.856 54.759-54.759 71.187-27.38 21.904-54.759 27.38-82.139 32.856-21.904 5.476-49.283 0-87.615-5.476 27.38 21.904 43.807 43.807 60.235 65.711 10.952 21.904 21.904 43.807 21.904 71.187 0 21.904 0 49.283-10.952 71.187-10.952 32.856-32.856 54.759-65.711 71.187-27.38 16.428-65.711 27.38-104.043 27.38-16.428 0-32.856 0-54.759-5.476l-49.283 125.947-120.471-43.807 43.807-109.519-71.187-32.856-43.807 109.519-120.471-43.807 43.807-109.519-180.706-76.663 38.332-93.091 27.38 10.952c16.428 5.476 32.856 10.952 38.332 10.952 10.952 0 16.428-5.476 21.904-5.476 5.476-5.476 10.952-16.428 21.904-38.332l158.802-377.84c10.952-16.428 10.952-32.856 10.952-38.332s0-10.952-10.952-16.428c-5.476-5.476-16.428-10.952-32.856-16.428l-27.38-10.952 38.332-93.091 180.706 71.187 43.807-109.519 120.471 43.807-43.807 109.519 65.711 27.38c5.476 0 5.476 0 10.952 5.476l49.283-109.519 120.471 43.807-49.283 120.471c16.428 10.952 32.856 21.904 49.283 32.856 16.428 21.904 38.332 60.235 49.283 98.567zM301.177 647.872l76.663 32.856c43.807 16.428 76.663 27.38 98.567 27.38s38.332 0 49.283-10.952c16.428-10.952 21.904-27.38 32.856-43.807 5.476-16.428 10.952-32.856 5.476-49.283s-16.428-32.856-32.856-49.283c-16.428-10.952-43.807-27.38-87.615-43.807l-76.663-27.38-65.711 164.278zM689.968 313.839c-5.476-21.904-16.428-38.332-38.332-54.759-16.428-10.952-38.332-27.38-71.187-38.332l-49.283-21.904c-16.428-5.476-27.38-5.476-32.856-5.476s-10.952 0-10.952 5.476-5.476 16.428-16.428 32.856l-60.235 147.85 93.091 32.856c38.332 16.428 71.187 21.904 93.091 21.904s43.807-5.476 54.759-16.428c16.428-10.952 27.38-27.38 32.856-43.807 10.952-16.428 10.952-38.332 5.476-60.235z" /><glyph unicode="&#xe924;" glyph-name="logo" horiz-adv-x="4290" d="M1013.275 615.306l-139.207-368.503-16.302-42.47h379.442l-153.364 410.973h-70.569zM913.106 242.514l126.123 322.815h18.447l123.978-322.815h-268.548zM958.793 696.814l-284.85-760.814h126.123l77.218 197.765h341.262l77.218-197.765h128.483l-283.777 760.814h-181.677zM1328.583-22.817l-76.146 194.547h-408.828l-76.146-194.547h-36.893l260.826 675.231h116.256l259.754-675.231h-38.824zM560.905 696.814l-208.704-629.543h-17.374l-206.559 629.543h-128.268l251.174-761.029h182.75l252.246 761.029h-125.265zM400.034-22.817h-115.184l-230.582 678.448h40.325l214.066-640.268h71.641l214.066 640.268h36.893l-231.226-678.448zM2485.141 696.814h-126.123v-761.029h502.348v121.833h-376.225v639.196zM2819.968 15.363v-37.966h-417.408v678.234h39.038v-640.268h378.37zM4289.904 960h-63.062l-84.726-131.486-86.013 131.486h-63.062l120.761-169.666-83.653-118.401 36.893-35.821 74.001 114.111 91.16-130.413h57.699l-120.761 171.596zM1998.237 123.898c0-5.362-1.072-12.012-7.507-16.302l-54.267-43.543c-3.217-4.29-8.794-6.435-15.229-6.435h-177.388c-6.435 0-9.867 2.145-16.302 6.435l-54.482 43.543c-4.29 4.29-6.435 10.939-6.435 16.302v572.917h-126.123v-587.073c0-21.664 7.507-41.398 24.023-57.699l94.592-92.447c16.302-15.229 45.687-24.023 67.351-24.023h211.921c20.592 0 40.325 8.794 57.699 24.023l105.532 92.447c14.157 16.302 23.809 35.821 23.809 57.699v587.073h-127.196v-572.917zM2040.493 123.898v531.734h41.398v-545.676c0-12.012-4.29-23.809-14.157-34.748l-93.52-82.581c-10.939-8.794-21.664-15.229-35.821-15.229h-211.921c-13.084 0-22.736 6.435-33.676 15.229l-94.592 83.653c-10.939 8.794-14.157 20.592-14.157 33.676v545.676h40.325v-531.519c0-14.157 5.362-28.313 16.302-37.966l64.134-54.267c13.084-10.939 23.809-16.302 39.038-16.302h177.173c15.229 0 30.458 5.362 39.038 17.374l65.207 53.195c10.939 9.652 15.229 23.594 15.229 37.751zM4025.646 618.738l-53.195 53.195c-16.302 16.302-35.821 25.096-58.772 25.096h-217.498c-22.736 0-42.47-8.794-58.772-25.096l-54.267-53.195c-16.302-15.229-21.664-32.603-21.664-54.267v-495.698c0-21.664 5.362-39.038 21.664-54.267l54.267-53.195c16.302-16.302 35.821-25.096 58.772-25.096h217.498c22.736 0 42.47 8.794 58.772 25.096l53.195 53.195c16.302 15.229 21.664 32.603 21.664 54.267v495.484c0.214 21.664-5.362 39.253-21.664 54.482zM3950.787 74.993c0-7.507-1.072-13.084-6.435-17.374l-26.168-27.241c-4.29-4.29-9.867-6.435-17.374-6.435h-192.402c-6.435 0-12.012 2.145-17.374 6.435l-26.168 27.241c-4.29 4.29-5.362 9.867-5.362 15.229v487.119c0 5.362 1.072 10.939 5.362 15.229l26.168 27.241c5.362 4.29 10.939 6.435 17.374 6.435h192.402c7.507 0 13.084-2.145 17.374-6.435l26.168-27.241c5.362-4.29 6.435-9.867 6.435-15.229v-484.974zM2857.076 575.196h218.571v-639.196h123.978v639.196h218.571v121.833h-561.119v-121.833zM2899.546 655.631h476.179v-37.966h-217.498v-640.483h-41.398v640.483h-217.498v37.966zM3696.396 205.62v-86.013l219.429 319.598-2.145 86.013z" /><glyph unicode="&#xe925;" glyph-name="zoom-square" d="M950.857 960h-877.714c-40.229 0-73.143-32.914-73.143-73.143v-877.714c0-40.229 32.914-73.143 73.143-73.143h877.714c40.229 0 73.143 32.914 73.143 73.143v877.714c0 40.229-32.914 73.143-73.143 73.143zM822.857 137.143c-9.143-9.143-21.943-14.629-34.743-14.629-14.629 0-25.6 5.486-34.743 14.629l-135.314 135.314c-47.543-32.914-98.743-49.371-157.257-49.371-38.4 0-73.143 7.314-107.886 21.943s-64 34.743-87.771 58.514c-25.6 25.6-43.886 54.857-58.514 87.771-14.629 34.743-21.943 69.486-21.943 107.886s7.314 73.143 21.943 107.886c14.629 34.743 34.743 64 58.514 87.771 25.6 25.6 54.857 43.886 87.771 58.514 34.743 14.629 69.486 21.943 107.886 21.943s73.143-7.314 107.886-21.943c34.743-14.629 64-34.743 87.771-58.514 25.6-25.6 43.886-54.857 58.514-87.771 14.629-34.743 21.943-69.486 21.943-107.886 0-58.514-16.457-109.714-49.371-157.257l135.314-135.314c9.143-9.143 14.629-21.943 14.629-34.743s-3.657-25.6-14.629-34.743zM460.8 676.571c-49.371 0-89.6-16.457-124.343-51.2s-51.2-76.8-51.2-124.343c0-49.371 16.457-89.6 51.2-124.343s76.8-51.2 124.343-51.2c49.371 0 89.6 16.457 124.343 51.2s51.2 76.8 51.2 124.343c0 49.371-16.457 89.6-51.2 124.343-34.743 32.914-76.8 51.2-124.343 51.2z" /><glyph unicode="&#xe926;" glyph-name="menu" horiz-adv-x="1382" d="M0 140.8h1382.4v-204.8h-1382.4zM0 960h1382.4v-204.8h-1382.4zM0 550.4h1382.4v-204.8h-1382.4z" /></font>
</defs>
</svg>
